<?xml version="1.0" standalone="no"?><!-- Generator: Gravit.io --><svg xmlns="http://www.w3.org/2000/svg" xmlns:xlink="http://www.w3.org/1999/xlink" style="isolation:isolate" viewBox="0 0 90 48" width="90" height="48"><defs><clipPath id="_clipPath_HYZwA4PQdGaqA4OqLsgJD4NnkhUolkuP"><rect width="90" height="48"/></clipPath></defs><g clip-path="url(#_clipPath_HYZwA4PQdGaqA4OqLsgJD4NnkhUolkuP)"><g transform="matrix(1.053,0,0,1.053,27,10.404)"><text transform="matrix(1,0,0,1,0,20.217)" style="font-family:&quot;Nunito&quot;;font-weight:400;font-size:18px;font-style:normal;fill:#FF0000;stroke:none;">Err 404</text></g><path d=" M 20.856 36.579 L 12.828 36.164 L 4.801 35.749 C 0.306 35.516 -1.346 32.268 1.115 28.499 L 5.939 21.109 L 10.763 13.719 C 13.224 9.95 16.742 10.213 18.615 14.306 L 22.111 21.945 L 25.606 29.584 C 27.479 33.677 25.351 36.811 20.856 36.579 Z " fill="rgb(255,153,0)"/><g transform="matrix(1.142,-0.075,0.075,1.142,10.574,6.885)"><text transform="matrix(1,0,0,1,0,23.145)" style="font-family:&quot;Oregano&quot;;font-weight:400;font-size:24px;font-style:normal;fill:#000000;stroke:none;">!</text></g></g></svg>